<svg width="240" height="240" xmlns="http://www.w3.org/2000/svg" viewBox="0 0 240 240"><title>240 travel flight</title><g fill="none" class="nc-icon-wrapper"><path d="M164.386 38.7104C174.416 28.68 190.679 28.6801 200.71 38.7104C210.741 48.7411 210.741 65.0048 200.71 75.0356L163.959 111.786L192.091 173.674C194.925 179.909 193.594 187.249 188.75 192.092V192.092C181.762 199.081 170.229 198.363 164.162 190.561L129.608 146.136L108.446 167.299L117.257 191.968C117.994 194.03 116.936 196.301 114.883 197.063L102.811 201.548C93.5743 204.979 83.2151 201.172 78.3987 192.576L67.0674 172.354L46.8451 161.023C38.2495 156.206 34.4423 145.847 37.8734 136.611L42.358 124.538C43.1204 122.486 45.3912 121.427 47.453 122.164L72.1211 130.974L93.2832 109.811L48.8605 75.2592C41.0589 69.1912 40.3411 57.6586 47.33 50.67V50.67C52.1733 45.827 59.5126 44.4962 65.7479 47.3304L127.634 75.4604L164.386 38.7104Z" stroke="#000" stroke-width="12" stroke-linecap="round" stroke-linejoin="round"></path></g></svg>