<svg width="240" height="240" xmlns="http://www.w3.org/2000/svg" data-color="color-2" viewBox="0 0 240 240"><title>240 batery 50</title><g fill="none" class="nc-icon-wrapper"><path d="M50 170L160 170C171.046 170 180 161.046 180 150L180 90C180 78.9543 171.046 70 160 70L50 70C38.9543 70 30 78.9543 30 90L30 150C30 161.046 38.9543 170 50 170Z" stroke="#000" stroke-width="12" stroke-linecap="round"></path><path d="M105 100L105 140" stroke="#000" stroke-width="12" stroke-linecap="round" stroke-linejoin="round" data-color="color-2"></path><path d="M70 100L70 140" stroke="#000" stroke-width="12" stroke-linecap="round" stroke-linejoin="round" data-color="color-2"></path><path d="M180 100L202 100C206.418 100 210 103.582 210 108L210 132C210 136.418 206.418 140 202 140L180 140" stroke="#000" stroke-width="12" stroke-linecap="round" stroke-linejoin="round"></path></g></svg>