<svg width="240" height="240" xmlns="http://www.w3.org/2000/svg" viewBox="0 0 240 240"><title>240 money bill</title><g fill="none" class="nc-icon-wrapper"><rect x="30" y="40" width="180" height="160" rx="20" stroke="#000" stroke-width="12" stroke-linecap="round"></rect><path d="M60 120L70 120" stroke="#000" stroke-width="12" stroke-linecap="round"></path><path d="M170 120L180 120" stroke="#000" stroke-width="12" stroke-linecap="round"></path><path d="M139.65 98.8235C138.995 91.7647 134.083 84 120 84C107.882 84 101.005 91.7647 100.35 98.8235C99.697 105.856 97.7295 116.471 120 120C142.27 123.529 140.303 134.144 139.65 141.176C138.995 148.235 132.118 156 120 156C105.917 156 101.005 148.235 100.35 141.176" stroke="#000" stroke-width="12" stroke-linecap="round" stroke-linejoin="round" data-color="color-2"></path><path d="M120 166L120 156" stroke="#000" stroke-width="12" stroke-linecap="round" stroke-linejoin="round" data-color="color-2"></path><path d="M120 84L120 74" stroke="#000" stroke-width="12" stroke-linecap="round" stroke-linejoin="round" data-color="color-2"></path></g></svg>