<svg width="240" height="240" xmlns="http://www.w3.org/2000/svg" viewBox="0 0 240 240"><title>240 credit loan disbursement</title><g fill="none" class="nc-icon-wrapper"><path d="M109.65 98.8235C108.995 91.7647 104.083 84 90 84C77.8822 84 71.0046 91.7647 70.3496 98.8235C69.697 105.856 67.7295 116.471 90 120C112.27 123.529 110.303 134.144 109.65 141.176C108.995 148.235 102.118 156 90 156C75.9172 156 71.0046 148.235 70.3496 141.176" stroke="#000" stroke-width="12" stroke-linecap="round" stroke-linejoin="round"></path><path d="M90 166L90 156" stroke="#000" stroke-width="12" stroke-linecap="round" stroke-linejoin="round"></path><path d="M90 84L90 74" stroke="#000" stroke-width="12" stroke-linecap="round" stroke-linejoin="round"></path><path d="M150 80.5V50C150 38.9543 141.046 30 130 30H50C38.9543 30 30 38.9543 30 50V190C30 201.046 38.9543 210 50 210H130C141.046 210 150 201.046 150 190V160" stroke="#000" stroke-width="12" stroke-linecap="round" stroke-linejoin="round"></path><path d="M140 120L190 120" stroke="#000" stroke-width="12" stroke-linecap="round" stroke-linejoin="round" data-color="color-2"></path><path d="M180 90L209.5 119.5L180 149" stroke="#000" stroke-width="12" stroke-linecap="round" stroke-linejoin="round" data-color="color-2"></path></g></svg>