<svg width="240" height="240" xmlns="http://www.w3.org/2000/svg" viewBox="0 0 240 240"><title>240 store</title><g fill="none" class="nc-icon-wrapper"><path d="M50 98V190C50 201.046 58.9543 210 70 210H170C181.046 210 190 201.046 190 190V98" stroke="#000" stroke-width="12"></path><path d="M100 160C100 148.954 108.954 140 120 140V140C131.046 140 140 148.954 140 160V205H100V160Z" stroke="#000" stroke-width="12"></path><path d="M37.5469 47.1716C38.9545 37.3186 47.3929 30 57.3459 30H182.654C192.607 30 201.046 37.3186 202.453 47.1716L206.739 77.1716C208.46 89.2202 199.111 100 186.94 100H53.0602C40.8892 100 31.54 89.2202 33.2612 77.1716L37.5469 47.1716Z" stroke="#000" stroke-width="12"></path><path d="M80 93L80 70" stroke="#000" stroke-width="12" stroke-linecap="round" stroke-linejoin="round"></path><path d="M160 93L160 70" stroke="#000" stroke-width="12" stroke-linecap="round" stroke-linejoin="round"></path><path d="M120 93L120 70" stroke="#000" stroke-width="12" stroke-linecap="round" stroke-linejoin="round"></path></g></svg>