<svg width="240" height="240" xmlns="http://www.w3.org/2000/svg" data-color="color-2" viewBox="0 0 240 240"><title>240 property price</title><g fill="none" class="nc-icon-wrapper"><path d="M139.65 112.824C138.995 105.765 134.083 98 120 98C107.882 98 101.005 105.765 100.35 112.824C99.697 119.856 97.7295 130.471 120 134C142.27 137.529 140.303 148.144 139.65 155.176C138.995 162.235 132.118 170 120 170C105.917 170 101.005 162.235 100.35 155.176" stroke="#000" stroke-width="12" stroke-linecap="round" stroke-linejoin="round" data-color="color-2"></path><path d="M120 180L120 170" stroke="#000" stroke-width="12" stroke-linecap="round" stroke-linejoin="round" data-color="color-2"></path><path d="M120 98L120 88" stroke="#000" stroke-width="12" stroke-linecap="round" stroke-linejoin="round" data-color="color-2"></path><path d="M50 88V190C50 201.046 58.9543 210 70 210H170C181.046 210 190 201.046 190 190V88" stroke="#000" stroke-width="12"></path><path d="M30 110L106.1 36.4371C113.852 28.9435 126.148 28.9434 133.9 36.4371L210 110" stroke="#000" stroke-width="12" stroke-linecap="round" stroke-linejoin="round"></path></g></svg>