<svg width="240" height="240" xmlns="http://www.w3.org/2000/svg" viewBox="0 0 240 240"><title>240 media camera</title><g fill="none" class="nc-icon-wrapper"><circle cx="120" cy="125" r="35" stroke="#000" stroke-width="12" data-color="color-2"></circle><path d="M190 190H50C38.9543 190 30 181.046 30 170V125V80C30 68.9543 38.951 60 49.9967 60H64.645C67.9885 60 71.114 58.329 72.9687 55.547L84.0627 38.906C87.772 33.342 94.0166 30 100.704 30H139.296C145.983 30 152.228 33.342 155.937 38.906L167.031 55.547C168.886 58.329 172.01 60 175.354 60H190.003C201.048 60 210 68.966 210 80.0117V169.988C210 181.034 201.046 190 190 190Z" stroke="#000" stroke-width="12" stroke-linecap="round" stroke-linejoin="round"></path></g></svg>