<svg width="240" height="240" xmlns="http://www.w3.org/2000/svg" data-color="color-2" viewBox="0 0 240 240"><title>240 vehicle rocket</title><g fill="none" class="nc-icon-wrapper"><g clip-path="url(#1753221016513-2647619_clip0_486_3862)"><path d="M153.296 143.689L192.785 97.2361C203.722 84.3703 208.543 67.3941 206 50.7002C204.72 42.2939 198.122 35.6965 189.716 34.416C173.022 31.8732 156.046 36.6941 143.18 47.6312L96.7277 87.1201L58.8126 88.4381C50.9491 88.7114 47.1976 98.2329 52.7613 103.797L136.62 187.655C142.183 193.219 151.705 189.467 151.978 181.604L153.296 143.689Z" stroke="#000" stroke-width="12" stroke-linecap="round" stroke-linejoin="round"></path><path d="M80 187L57 210" stroke="#000" stroke-width="12" stroke-linecap="round" stroke-linejoin="round" data-color="color-2"></path><path d="M50 155L35 170" stroke="#000" stroke-width="12" stroke-linecap="round" stroke-linejoin="round" data-color="color-2"></path><path d="M170 70L160 80" stroke="#000" stroke-width="12" stroke-linecap="round" stroke-linejoin="round" data-color="color-2"></path></g><defs><clipPath id="1753221016513-2647619_clip0_486_3862"><path fill="#000" d="M0 0H240V240H0z"></path></clipPath></defs></g></svg>