<svg width="240" height="240" xmlns="http://www.w3.org/2000/svg" viewBox="0 0 240 240"><title>240 eye</title><g fill="none" class="nc-icon-wrapper"><path d="M29.1138 120C41.2932 154.775 77.5206 180 120.318 180C162.497 180 198.295 155.498 210.979 121.5C211.128 121.1 211.33 120.53 211.514 120" stroke="#000" stroke-width="12" stroke-linecap="round"></path><path d="M30.0366 117.5C43.0446 84.0224 78.5527 60 120.317 60C162.082 60 197.59 84.0224 210.598 117.5" stroke="#000" stroke-width="12" stroke-linecap="round"></path><path d="M87.6275 66.5C82.8299 73.0976 80 81.2183 80 90C80 112.091 97.9086 130 120 130C142.091 130 160 112.091 160 90C160 81.2183 157.17 73.0976 152.372 66.5" stroke="#000" stroke-width="12" stroke-linecap="round"></path></g></svg>