<svg width="240" height="240" xmlns="http://www.w3.org/2000/svg" viewBox="0 0 240 240"><title>240 vehicle delivery</title><g fill="none" class="nc-icon-wrapper"><path d="M98.5 166H130C141.046 166 150 157.046 150 146V70C150 58.9543 141.046 50 130 50H50C38.9543 50 30 58.9543 30 70V146C30 157.046 38.9543 166 50 166H54" stroke="#000" stroke-width="12" stroke-linecap="round"></path><circle cx="77" cy="168" r="22" stroke="#000" stroke-width="12" stroke-linecap="round"></circle><circle cx="168" cy="168" r="22" stroke="#000" stroke-width="12" stroke-linecap="round"></circle><path d="M150 143V70H160C187.614 70 210 92.3858 210 120V143C210 154.046 201.046 163 190 163H189" stroke="#000" stroke-width="12" stroke-linecap="round"></path><path d="M110 80H70" stroke="#000" stroke-width="12" stroke-linecap="round" data-color="color-2"></path><path d="M110 110H70" stroke="#000" stroke-width="12" stroke-linecap="round" data-color="color-2"></path></g></svg>