<svg width="240" height="240" xmlns="http://www.w3.org/2000/svg" data-color="color-2" viewBox="0 0 240 240"><title>240 world find</title><g fill="none" class="nc-icon-wrapper"><path d="M33.1723 102.657L57.7801 129.814C58.1456 130.218 58.6597 130.455 59.2038 130.471L81.7689 131.129C82.5367 131.151 83.2237 131.611 83.5369 132.312L105.089 180.58C105.845 182.273 108.299 182.115 108.831 180.338L127.012 119.611C127.292 118.677 126.857 117.677 125.982 117.245L88.3796 98.6626C87.3349 98.1464 86.951 96.8498 87.5463 95.848L107.286 62.6259L97.6779 34.896M173 47.9999L158.27 70.1139C157.725 70.9315 157.855 72.0237 158.576 72.6908L180.204 92.6955C180.944 93.3793 181.059 94.5061 180.474 95.3257L170 110" stroke="#000" stroke-width="12" stroke-linecap="round"></path><circle cx="174" cy="168" r="28" stroke="#000" stroke-width="12" stroke-linecap="round" stroke-linejoin="round" data-color="color-2"></circle><path d="M194 189L210 204" stroke="#000" stroke-width="12" stroke-linecap="round" stroke-linejoin="round" data-color="color-2"></path><path d="M210 120C210 70.2944 169.706 30 120 30C70.2944 30 30 70.2944 30 120C30 169.706 70.2944 210 120 210C123.552 210 127.056 209.794 130.5 209.394" stroke="#000" stroke-width="12" stroke-linecap="round" stroke-linejoin="round"></path></g></svg>