<svg width="240" height="240" xmlns="http://www.w3.org/2000/svg" viewBox="0 0 240 240"><title>240 places beach sun</title><g fill="none" class="nc-icon-wrapper"><path d="M30 155C38.5714 148.333 47.1429 148.333 55.7143 155C64.2857 161.667 72.8571 161.667 81.4286 155C90 148.333 98.5714 148.333 107.143 155C115.714 161.667 124.286 161.667 132.857 155C141.429 148.333 150 148.333 158.571 155C167.143 161.667 175.714 161.667 184.286 155C192.857 148.333 201.429 148.333 210 155" stroke="#000" stroke-width="12" stroke-linecap="round" stroke-linejoin="round"></path><path d="M30 195C38.5714 188.333 47.1429 188.333 55.7143 195C64.2857 201.667 72.8571 201.667 81.4286 195C90 188.333 98.5714 188.333 107.143 195C115.714 201.667 124.286 201.667 132.857 195C141.429 188.333 150 188.333 158.571 195C167.143 201.667 175.714 201.667 184.286 195C192.857 188.333 201.429 188.333 210 195" stroke="#000" stroke-width="12" stroke-linecap="round" stroke-linejoin="round" data-color="color-2"></path><path d="M170 121C170 93.3858 147.614 71 120 71C92.3858 71 70 93.3858 70 121" stroke="#000" stroke-width="12" stroke-linecap="round"></path><path d="M30 100L40 100" stroke="#000" stroke-width="12" stroke-linecap="round" stroke-linejoin="round"></path><path d="M210 100L200 100" stroke="#000" stroke-width="12" stroke-linecap="round" stroke-linejoin="round"></path><path d="M120 30L120 40" stroke="#000" stroke-width="12" stroke-linecap="round" stroke-linejoin="round"></path><path d="M50 50L59 59" stroke="#000" stroke-width="12" stroke-linecap="round" stroke-linejoin="round"></path><path d="M190 50L181 59" stroke="#000" stroke-width="12" stroke-linecap="round" stroke-linejoin="round"></path></g></svg>