<svg width="240" height="240" xmlns="http://www.w3.org/2000/svg" data-color="color-2" viewBox="0 0 240 240"><title>240 file document fill</title><g fill="none" class="nc-icon-wrapper"><path d="M50 90V190C50 201.046 58.9543 210 70 210H170C181.046 210 190 201.046 190 190V50C190 38.9543 181.046 30 170 30H110M50 90V78.2843C50 72.9799 52.1071 67.8929 55.8579 64.1421L84.1421 35.8579C87.8929 32.1071 92.9799 30 98.2843 30H110M50 90H90C101.046 90 110 81.0457 110 70V30" stroke="#000" stroke-width="12"></path><path d="M90 170H150" stroke="#000" stroke-width="12" stroke-linecap="round" data-color="color-2"></path><path d="M90 130H150" stroke="#000" stroke-width="12" stroke-linecap="round" data-color="color-2"></path></g></svg>