<svg width="240" height="240" xmlns="http://www.w3.org/2000/svg" viewBox="0 0 240 240"><title>240 thermometer</title><g fill="none" class="nc-icon-wrapper"><path d="M100 135.351C88.044 142.268 80 155.194 80 170C80 192.091 97.9086 210 120 210C142.091 210 160 192.091 160 170C160 155.194 151.956 142.268 140 135.351" stroke="#000" stroke-width="12" stroke-linecap="round"></path><path d="M140 135L140 50C140 38.9543 131.046 30 120 30V30C108.954 30 100 38.9543 100 50L100 136" stroke="#000" stroke-width="12"></path><path d="M170 50H190" stroke="#000" stroke-width="12" stroke-linecap="round" stroke-linejoin="round" data-color="color-2"></path><path d="M170 83H190" stroke="#000" stroke-width="12" stroke-linecap="round" stroke-linejoin="round"></path><path d="M170 120H190" stroke="#000" stroke-width="12" stroke-linecap="round" stroke-linejoin="round" data-color="color-2"></path><path d="M120 169.5L120 170" stroke="#000" stroke-width="12" stroke-linecap="round" data-color="color-2"></path></g></svg>