<svg width="240" height="240" xmlns="http://www.w3.org/2000/svg" viewBox="0 0 240 240"><title>240 loan approval</title><g fill="none" class="nc-icon-wrapper"><path d="M139.65 102.824C138.995 95.7647 134.083 88 120 88C107.882 88 101.005 95.7647 100.35 102.824C99.697 109.856 97.7295 120.471 120 124C142.27 127.529 140.303 138.144 139.65 145.176C138.995 152.235 132.118 160 120 160C105.917 160 101.005 152.235 100.35 145.176" stroke="#000" stroke-width="12" stroke-linecap="round" stroke-linejoin="round"></path><path d="M120 170L120 160" stroke="#000" stroke-width="12" stroke-linecap="round" stroke-linejoin="round"></path><path d="M120 88L120 78" stroke="#000" stroke-width="12" stroke-linecap="round" stroke-linejoin="round"></path><path d="M149.014 182.145L166.722 199.853L202.867 163.708" stroke="#000" stroke-width="12" stroke-linecap="round" stroke-linejoin="round" data-color="color-2"></path><path d="M210 120C210 70.2944 169.706 30 120 30C70.2944 30 30 70.2944 30 120C30 169.706 70.2944 210 120 210" stroke="#000" stroke-width="12" stroke-linecap="round" stroke-linejoin="round"></path></g></svg>