<svg width="240" height="240" xmlns="http://www.w3.org/2000/svg" viewBox="0 0 240 240"><title>240 trvael bed</title><g fill="none" class="nc-icon-wrapper"><path d="M37.8675 99.5934C39.0846 89.552 47.6072 82 57.7221 82H181.918C192.186 82 200.785 89.7746 201.817 99.99L207.777 158.99C208.967 170.77 199.718 181 187.878 181H50.5706C38.5706 181 29.272 170.506 30.716 158.593L37.8675 99.5934Z" stroke="#000" stroke-width="12" stroke-linecap="round" stroke-linejoin="round"></path><path d="M50 60C50 48.9543 58.9543 40 70 40H170C181.046 40 190 48.9543 190 60V82H50V60Z" stroke="#000" stroke-width="12" stroke-linecap="round" stroke-linejoin="round"></path><path d="M50 200L50 181" stroke="#000" stroke-width="12" stroke-linecap="round" stroke-linejoin="round"></path><path d="M190 200V181" stroke="#000" stroke-width="12" stroke-linecap="round" stroke-linejoin="round"></path><path d="M73 120L167 120" stroke="#000" stroke-width="12" stroke-linecap="round" stroke-linejoin="round" data-color="color-2"></path><path d="M120 82L120 40" stroke="#000" stroke-width="12" stroke-linecap="round" stroke-linejoin="round"></path></g></svg>