<svg width="240" height="240" xmlns="http://www.w3.org/2000/svg" viewBox="0 0 240 240"><title>240 home insurance</title><g fill="none" class="nc-icon-wrapper"><path d="M40 152.056V49.9458C75.6729 60.15 93.0716 46.0981 120 30C146.928 46.0981 164.327 60.15 200 49.9458V152.894C200 159.262 196.515 165.248 190.622 169.003L120 214L49.253 168.923C43.4895 165.251 40 158.89 40 152.056Z" stroke="#000" stroke-width="12" stroke-linecap="round" stroke-linejoin="round"></path><path d="M80 98V150C80 155.523 84.4772 160 90 160H150C155.523 160 160 155.523 160 150V98" stroke="#000" stroke-width="12" data-color="color-2"></path><path d="M72 110L120 71L168 110" stroke="#000" stroke-width="12" stroke-linecap="round" stroke-linejoin="round" data-color="color-2"></path><path d="M120.5 130.5V158" stroke="#000" stroke-width="12" stroke-linecap="round" stroke-linejoin="round" data-color="color-2"></path></g></svg>