<svg width="240" height="240" xmlns="http://www.w3.org/2000/svg" viewBox="0 0 240 240"><title>240 file document blank write</title><g fill="none" class="nc-icon-wrapper"><path d="M100 210H70C58.9543 210 50 201.046 50 190V90M50 90V78.2843C50 72.9799 52.1071 67.8929 55.8579 64.1421L84.1421 35.8579C87.8929 32.1071 92.9799 30 98.2843 30H110M50 90H90C101.046 90 110 81.0457 110 70V30M110 30H170C181.046 30 190 38.9543 190 50V92" stroke="#000" stroke-width="12" stroke-linecap="round"></path><path d="M189.663 128.353L217.947 156.638L164.805 209.78L140.19 206.111L136.521 181.495L189.663 128.353Z" stroke="#000" stroke-width="12" stroke-linejoin="round" data-color="color-2"></path></g></svg>