<svg width="240" height="240" xmlns="http://www.w3.org/2000/svg" viewBox="0 0 240 240"><title>240 device laptop connect</title><g fill="none" class="nc-icon-wrapper"><path d="M30 190L100 190" stroke="#000" stroke-width="12" stroke-linecap="round" stroke-linejoin="round"></path><path d="M137 144C141.325 148.221 144 154.055 144 160.5C144 166.945 141.325 172.779 137 177" stroke="#000" stroke-width="12" stroke-linecap="round" data-color="color-2"></path><path d="M164 127C172.648 135.45 178 147.141 178 160.057C178 172.915 172.696 184.559 164.117 193" stroke="#000" stroke-width="12" stroke-linecap="round" data-color="color-2"></path><path d="M191 110C203.354 122.777 211 140.461 211 160C211 179.539 203.354 197.223 191 210" stroke="#000" stroke-width="12" stroke-linecap="round" data-color="color-2"></path><path d="M100 160H60C48.9543 160 40 151.046 40 140V60C40 48.9543 48.9543 40 60 40H180C191.046 40 200 48.9543 200 60V72" stroke="#000" stroke-width="12" stroke-linecap="round" stroke-linejoin="round"></path></g></svg>