<svg width="240" height="240" xmlns="http://www.w3.org/2000/svg" viewBox="0 0 240 240"><title>240 places mansion</title><g fill="none" class="nc-icon-wrapper"><path d="M50 69V190C50 201.046 58.9543 210 70 210H140C151.046 210 160 201.046 160 190V69" stroke="#000" stroke-width="12" stroke-linecap="round" stroke-linejoin="round"></path><path d="M30 85L92.3804 34.264C99.7313 28.2852 110.269 28.2852 117.62 34.264L180 85" stroke="#000" stroke-width="12" stroke-linecap="round" stroke-linejoin="round"></path><path d="M161.965 120H181C192.046 120 201 128.954 201 140V190C201 201.046 192.046 210 181 210H129" stroke="#000" stroke-width="12" stroke-linecap="round" stroke-linejoin="round"></path><path d="M90 155C90 146.716 96.7157 140 105 140V140C113.284 140 120 146.716 120 155V205H90V155Z" stroke="#000" stroke-width="12"></path><path d="M90 80.005L90 100.005" stroke="#000" stroke-width="12" stroke-linecap="round" data-color="color-2"></path><path d="M120 80.005L120 100.005" stroke="#000" stroke-width="12" stroke-linecap="round" data-color="color-2"></path></g></svg>