<svg width="240" height="240" xmlns="http://www.w3.org/2000/svg" viewBox="0 0 240 240"><title>240 credit payment plan</title><g fill="none" class="nc-icon-wrapper"><path d="M209.65 143.824C208.995 136.765 204.083 129 190 129C177.882 129 171.005 136.765 170.35 143.824C169.697 150.856 167.729 161.471 190 165C212.27 168.529 210.303 179.144 209.65 186.176C208.995 193.235 202.118 201 190 201C175.917 201 171.005 193.235 170.35 186.176" stroke="#000" stroke-width="12" stroke-linecap="round" stroke-linejoin="round" data-color="color-2"></path><path d="M190 211L190 201" stroke="#000" stroke-width="12" stroke-linecap="round" stroke-linejoin="round" data-color="color-2"></path><path d="M190 129L190 119" stroke="#000" stroke-width="12" stroke-linecap="round" stroke-linejoin="round" data-color="color-2"></path><path d="M130.5 200H50C38.9543 200 30 191.046 30 180V60C30 48.9543 38.9543 40 50 40H190C201.046 40 210 48.9543 210 60V80" stroke="#000" stroke-width="12" stroke-linecap="round"></path><path d="M70 80.0003L170 80.0005" stroke="#000" stroke-width="12" stroke-linecap="round" stroke-linejoin="round"></path><path d="M70 120L110 120M70 160L120 160" stroke="#000" stroke-width="12" stroke-linecap="round" stroke-linejoin="round"></path></g></svg>