<svg width="240" height="240" xmlns="http://www.w3.org/2000/svg" viewBox="0 0 240 240"><title>240 ticket</title><g fill="none" class="nc-icon-wrapper"><path d="M125.358 36.6422C133.168 28.8318 145.832 28.8319 153.642 36.6422L165.5 48.5001L159 55.0001C151.82 62.1798 151.82 73.8204 159 81.0001C166.18 88.1797 177.82 88.1797 185 81.0001L191.5 74.5001L203.358 86.3579C211.168 94.1684 211.168 106.832 203.358 114.642L114.642 203.358C106.832 211.168 94.1682 211.168 86.3578 203.358L74.5 191.5L80.9999 185C88.1796 177.82 88.1796 166.18 80.9999 159C73.8203 151.82 62.1797 151.82 55 159L48.5 165.5L36.6421 153.642C28.8319 145.832 28.8319 133.168 36.6421 125.358L125.358 36.6422Z" stroke="#000" stroke-width="12" stroke-linecap="round" stroke-linejoin="round"></path><path d="M100 100L82.5 82.5" stroke="#000" stroke-width="12" stroke-linecap="round" stroke-linejoin="round"></path><path d="M157.5 157.5L140 140" stroke="#000" stroke-width="12" stroke-linecap="round" stroke-linejoin="round"></path></g></svg>