<svg width="240" height="240" xmlns="http://www.w3.org/2000/svg" viewBox="0 0 240 240"><title>240 credit escrow</title><g fill="none" class="nc-icon-wrapper"><path d="M180 110V50C180 38.9543 171.046 30 160 30H50C38.9543 30 30 38.9543 30 50V180C30 191.046 38.9372 200 49.9829 200C68.3547 200 96.2591 200 120 200" stroke="#000" stroke-width="12" stroke-linecap="round" stroke-linejoin="round"></path><path d="M109.65 94.8235C108.995 87.7647 104.083 80 90 80C77.8822 80 71.0046 87.7647 70.3496 94.8235C69.697 101.856 67.7295 112.471 90 116C112.27 119.529 110.303 130.144 109.65 137.176C108.995 144.235 102.118 152 90 152C75.9172 152 71.0046 144.235 70.3496 137.176" stroke="#000" stroke-width="12" stroke-linecap="round" stroke-linejoin="round"></path><path d="M90 162L90 152" stroke="#000" stroke-width="12" stroke-linecap="round" stroke-linejoin="round"></path><path d="M90 80L90 70" stroke="#000" stroke-width="12" stroke-linecap="round" stroke-linejoin="round"></path><path d="M150 188.889V134L179.864 146.667L210 134V188.889L179.864 210L150 188.889Z" stroke="#000" stroke-width="12" stroke-linecap="round" stroke-linejoin="round" data-color="color-2"></path></g></svg>