<svg width="240" height="240" xmlns="http://www.w3.org/2000/svg" viewBox="0 0 240 240"><title>240 property owner</title><g fill="none" class="nc-icon-wrapper"><path d="M50 88V190C50 201.046 58.9543 210 70 210H170C181.046 210 190 201.046 190 190V88" stroke="#000" stroke-width="12"></path><path d="M30 110L106.1 36.4371C113.852 28.9435 126.148 28.9434 133.9 36.4371L210 110" stroke="#000" stroke-width="12" stroke-linecap="round" stroke-linejoin="round"></path><path d="M90.3745 162.933C91.4061 155.519 97.7459 150 105.231 150H134.769C142.254 150 148.594 155.519 149.625 162.933V162.933C150.88 171.952 143.875 180 134.769 180H105.231C96.1253 180 89.1197 171.952 90.3745 162.933V162.933Z" stroke="#000" stroke-width="12" data-color="color-2"></path><circle cx="120" cy="100" r="20" stroke="#000" stroke-width="12" data-color="color-2"></circle></g></svg>