<svg width="240" height="240" xmlns="http://www.w3.org/2000/svg" viewBox="0 0 240 240"><title>240 food cup tea</title><g fill="none" class="nc-icon-wrapper"><path d="M50 82C50 75.3726 55.3726 70 62 70H168C174.627 70 180 75.3726 180 82V170C180 192.091 162.091 210 140 210H90C67.9086 210 50 192.091 50 170V82Z" stroke="#000" stroke-width="12" stroke-linecap="round" stroke-linejoin="round"></path><path d="M180 90H190C201.046 90 210 98.9543 210 110V140C210 151.046 201.046 160 190 160H180V90Z" stroke="#000" stroke-width="12" stroke-linecap="round" stroke-linejoin="round"></path><path d="M120 30L110 40" stroke="#000" stroke-width="12" stroke-linecap="round" stroke-linejoin="round" data-color="color-2"></path><path d="M80 30L75 35L70 40" stroke="#000" stroke-width="12" stroke-linecap="round" stroke-linejoin="round" data-color="color-2"></path><path d="M160 30L150 40" stroke="#000" stroke-width="12" stroke-linecap="round" stroke-linejoin="round" data-color="color-2"></path><path stroke="#000" stroke-width="12" stroke-linecap="round" stroke-linejoin="round" d="M80 130H120V170H80z"></path><path d="M100 70V130" stroke="#000" stroke-width="12" stroke-linecap="round" stroke-linejoin="round"></path></g></svg>