<svg width="240" height="240" xmlns="http://www.w3.org/2000/svg" data-color="color-2" viewBox="0 0 240 240"><title>240 world</title><g fill="none" class="nc-icon-wrapper"><circle cx="120" cy="120" r="90" stroke="#000" stroke-width="12" stroke-linecap="round" stroke-linejoin="round"></circle><path d="M33.1723 102.657L57.7801 129.814C58.1456 130.218 58.6597 130.455 59.2038 130.471L81.7689 131.129C82.5367 131.151 83.2237 131.611 83.5369 132.312L105.089 180.58C105.845 182.273 108.299 182.115 108.831 180.338L127.012 119.611C127.292 118.677 126.857 117.677 125.982 117.245L88.3796 98.6626C87.3349 98.1464 86.951 96.8498 87.5463 95.848L107.286 62.6259L97.6779 34.896M173 47.9999L158.27 70.1139C157.725 70.9315 157.855 72.0237 158.576 72.6908L180.413 92.889C181.058 93.4851 181.238 94.4317 180.858 95.2231L169.335 119.216C169.048 119.814 169.076 120.516 169.411 121.09L192.77 161.137" stroke="#000" stroke-width="12" stroke-linecap="round"></path></g></svg>