<svg width="240" height="240" xmlns="http://www.w3.org/2000/svg" viewBox="0 0 240 240"><title>240 loan refinance</title><g fill="none" class="nc-icon-wrapper"><g clip-path="url(#1752994271169-713620_clip0_459_5953)"><path d="M210.5 57.214L183.786 57.214C218.738 92.1659 218.738 148.834 183.786 183.786C168.475 199.098 148.995 207.702 129 209.598" stroke="#000" stroke-width="12" stroke-linecap="round" stroke-linejoin="round" data-color="color-2"></path><path d="M29.9293 183.858L56.6433 183.858C21.6914 148.906 21.6914 92.238 56.6433 57.286C74.1373 39.792 97.0716 31.0541 120 31.0721" stroke="#000" stroke-width="12" stroke-linecap="round" stroke-linejoin="round"></path><path d="M80 98V150C80 155.523 84.4772 160 90 160H150C155.523 160 160 155.523 160 150V98" stroke="#000" stroke-width="12"></path><path d="M72 110L120 71L168 110" stroke="#000" stroke-width="12" stroke-linecap="round" stroke-linejoin="round"></path><path d="M120.5 130.5V158" stroke="#000" stroke-width="12" stroke-linecap="round" stroke-linejoin="round"></path></g><defs><clipPath id="1752994271169-713620_clip0_459_5953"><path fill="#000" d="M0 0H240V240H0z"></path></clipPath></defs></g></svg>