<svg width="240" height="240" xmlns="http://www.w3.org/2000/svg" viewBox="0 0 240 240"><title>240 date payment</title><g fill="none" class="nc-icon-wrapper"><path d="M130 190H50C38.9543 190 30 181.046 30 170V70C30 58.9543 38.9543 50 50 50H190C201.046 50 210 58.9543 210 70V85" stroke="#000" stroke-width="12" stroke-linecap="round" stroke-linejoin="round"></path><path d="M33 110L140 110" stroke="#000" stroke-width="12" stroke-linecap="round" stroke-linejoin="round"></path><path d="M80 70L80 30" stroke="#000" stroke-width="12" stroke-linecap="round" stroke-linejoin="round"></path><path d="M160 70L160 30" stroke="#000" stroke-width="12" stroke-linecap="round" stroke-linejoin="round"></path><path d="M209.65 142.824C208.995 135.765 204.083 128 190 128C177.882 128 171.005 135.765 170.35 142.824C169.697 149.856 167.729 160.471 190 164C212.27 167.529 210.303 178.144 209.65 185.176C208.995 192.235 202.118 200 190 200C175.917 200 171.005 192.235 170.35 185.176" stroke="#000" stroke-width="12" stroke-linecap="round" stroke-linejoin="round" data-color="color-2"></path><path d="M190 210L190 200" stroke="#000" stroke-width="12" stroke-linecap="round" stroke-linejoin="round" data-color="color-2"></path><path d="M190 128L190 118" stroke="#000" stroke-width="12" stroke-linecap="round" stroke-linejoin="round" data-color="color-2"></path></g></svg>