<svg width="240" height="240" xmlns="http://www.w3.org/2000/svg" data-color="color-2" viewBox="0 0 240 240"><title>240 credit details</title><g fill="none" class="nc-icon-wrapper"><rect x="30" y="40" width="180" height="160" rx="20" stroke="#000" stroke-width="12" stroke-linecap="round" stroke-linejoin="round"></rect><path d="M130 140L150 140" stroke="#000" stroke-width="12" stroke-linecap="round" data-color="color-2"></path><path d="M130 100L180 100" stroke="#000" stroke-width="12" stroke-linecap="round" data-color="color-2"></path><path d="M99.6504 101.824C98.9954 94.7647 94.0828 87 80 87C67.8822 87 61.0046 94.7647 60.3496 101.824C59.697 108.856 57.7295 119.471 80 123C102.27 126.529 100.303 137.144 99.6504 144.176C98.9954 151.235 92.1178 159 80 159C65.9172 159 61.0046 151.235 60.3496 144.176" stroke="#000" stroke-width="12" stroke-linecap="round" stroke-linejoin="round"></path><path d="M80 169L80 159" stroke="#000" stroke-width="12" stroke-linecap="round" stroke-linejoin="round"></path><path d="M80 87L80 77" stroke="#000" stroke-width="12" stroke-linecap="round" stroke-linejoin="round"></path></g></svg>