<svg width="240" height="240" xmlns="http://www.w3.org/2000/svg" viewBox="0 0 240 240"><title>240 device phone connect</title><g fill="none" class="nc-icon-wrapper"><path d="M137 104C141.325 108.221 144 114.055 144 120.5C144 126.945 141.325 132.779 137 137" stroke="#000" stroke-width="12" stroke-linecap="round" data-color="color-2"></path><path d="M164 87C172.648 95.4499 178 107.141 178 120.057C178 132.915 172.696 144.559 164.117 153" stroke="#000" stroke-width="12" stroke-linecap="round" data-color="color-2"></path><path d="M191 70C203.354 82.7767 211 100.461 211 120C211 139.539 203.354 157.223 191 170" stroke="#000" stroke-width="12" stroke-linecap="round" data-color="color-2"></path><path d="M150 60V50C150 38.9543 141.046 30 130 30H50C38.9543 30 30 38.9543 30 50V190C30 201.046 38.9543 210 50 210H130C141.046 210 150 201.046 150 190V180" stroke="#000" stroke-width="12" stroke-linecap="round"></path><path d="M80 180L100 180" stroke="#000" stroke-width="12" stroke-linecap="round"></path></g></svg>