<svg width="240" height="240" xmlns="http://www.w3.org/2000/svg" viewBox="0 0 240 240"><title>240 places building</title><g fill="none" class="nc-icon-wrapper"><path d="M160 190V50C160 38.9543 151.046 30 140 30H50C38.9543 30 30 38.9543 30 50V190C30 201.046 38.9543 210 50 210H140C151.046 210 160 201.046 160 190Z" stroke="#000" stroke-width="12" stroke-linecap="round" stroke-linejoin="round"></path><path d="M161.965 120H181C192.046 120 201 128.954 201 140V190C201 201.046 192.046 210 181 210H129" stroke="#000" stroke-width="12" stroke-linecap="round" stroke-linejoin="round"></path><path d="M80 140H110V205H80V140Z" stroke="#000" stroke-width="12"></path><path d="M70 140L120 140" stroke="#000" stroke-width="12" stroke-linecap="round"></path><path d="M110 100L110 110" stroke="#000" stroke-width="12" stroke-linecap="round" data-color="color-2"></path><path d="M80 100L80 110" stroke="#000" stroke-width="12" stroke-linecap="round" data-color="color-2"></path><path d="M80 60L80 70" stroke="#000" stroke-width="12" stroke-linecap="round" data-color="color-2"></path><path d="M110 60L110 70" stroke="#000" stroke-width="12" stroke-linecap="round" data-color="color-2"></path></g></svg>