<svg width="240" height="240" xmlns="http://www.w3.org/2000/svg" viewBox="0 0 240 240"><title>240 credit check</title><g fill="none" class="nc-icon-wrapper"><path d="M180 110V50C180 38.9543 171.046 30 160 30H50C38.9543 30 30 38.9543 30 50V180C30 191.046 38.9372 200 49.9829 200C68.3547 200 96.2591 200 120 200" stroke="#000" stroke-width="12" stroke-linecap="round" stroke-linejoin="round"></path><circle cx="174" cy="168" r="28" stroke="#000" stroke-width="12" stroke-linecap="round" stroke-linejoin="round" data-color="color-2"></circle><path d="M194 189L210 204" stroke="#000" stroke-width="12" stroke-linecap="round" stroke-linejoin="round" data-color="color-2"></path><path d="M110.65 93.8235C109.995 86.7647 105.083 79 91 79C78.8822 79 72.0046 86.7647 71.3496 93.8235C70.697 100.856 68.7295 111.471 91 115C113.27 118.529 111.303 129.144 110.65 136.176C109.995 143.235 103.118 151 91 151C76.9172 151 72.0046 143.235 71.3496 136.176" stroke="#000" stroke-width="12" stroke-linecap="round" stroke-linejoin="round"></path><path d="M91 161L91 151" stroke="#000" stroke-width="12" stroke-linecap="round" stroke-linejoin="round"></path><path d="M91 79L91 69" stroke="#000" stroke-width="12" stroke-linecap="round" stroke-linejoin="round"></path></g></svg>