<svg width="240" height="240" xmlns="http://www.w3.org/2000/svg" viewBox="0 0 240 240"><title>240 light bulb</title><g fill="none" class="nc-icon-wrapper"><path d="M90 148.773C77.8555 139.651 70 125.127 70 108.769C70 81.1551 92.3858 58.7693 120 58.7693C147.614 58.7693 170 81.1551 170 108.769C170 125.127 162.144 139.651 150 148.773" stroke="#000" stroke-width="12" stroke-linecap="round" stroke-linejoin="round"></path><path d="M90 149V190C90 201.046 98.9543 210 110 210H130C141.046 210 150 201.046 150 190V149" stroke="#000" stroke-width="12" stroke-linecap="round" stroke-linejoin="round"></path><path d="M95 171H145" stroke="#000" stroke-width="12" stroke-linecap="round" stroke-linejoin="round"></path><path d="M60 50H60.1" stroke="#000" stroke-width="12" stroke-linecap="round" stroke-linejoin="round" data-color="color-2"></path><path d="M122 30H122.1" stroke="#000" stroke-width="12" stroke-linecap="round" stroke-linejoin="round" data-color="color-2"></path><path d="M40 100H40.1" stroke="#000" stroke-width="12" stroke-linecap="round" stroke-linejoin="round" data-color="color-2"></path><path d="M200 100H200.1" stroke="#000" stroke-width="12" stroke-linecap="round" stroke-linejoin="round" data-color="color-2"></path><path d="M180 51H180.1" stroke="#000" stroke-width="12" stroke-linecap="round" stroke-linejoin="round" data-color="color-2"></path></g></svg>