<svg width="240" height="240" xmlns="http://www.w3.org/2000/svg" viewBox="0 0 240 240"><title>240 vehicle car</title><g fill="none" class="nc-icon-wrapper"><path d="M30 112.734V140C30 151.046 38.9543 160 50 160H55M194 160V160C202.837 160 210 152.837 210 144V130C210 118.954 201.046 110 190 110H30" stroke="#000" stroke-width="12" stroke-linecap="round"></path><path d="M99 54L99 107" stroke="#000" stroke-width="12" stroke-linecap="round" stroke-linejoin="round"></path><path d="M145 160H102" stroke="#000" stroke-width="12" stroke-linecap="round" stroke-linejoin="round"></path><path d="M182 106L161.517 70.1545C154.395 57.6915 141.141 50 126.787 50H53.2856C51.376 50 49.7327 51.3498 49.3618 53.223L40 100.5" stroke="#000" stroke-width="12" stroke-linecap="round"></path><circle cx="77" cy="168" r="22" stroke="#000" stroke-width="12" stroke-linecap="round"></circle><circle cx="168" cy="168" r="22" stroke="#000" stroke-width="12" stroke-linecap="round"></circle></g></svg>