<svg width="240" height="240" xmlns="http://www.w3.org/2000/svg" data-color="color-2" viewBox="0 0 240 240"><title>240 control sound on</title><g fill="none" class="nc-icon-wrapper"><path d="M30 84C30 81.7909 31.7909 80 34 80H68.8921C69.617 80 70.3284 79.803 70.95 79.43L113.942 53.6348C116.608 52.0351 120 53.9556 120 57.0648V182.935C120 186.044 116.608 187.965 113.942 186.365L70.95 160.57C70.3284 160.197 69.617 160 68.8921 160H34C31.7909 160 30 158.209 30 156V84Z" stroke="#000" stroke-width="12" stroke-linecap="round" stroke-linejoin="round"></path><path d="M166 87C174.648 95.4499 180 107.141 180 120.057C180 132.915 174.696 144.559 166.117 153" stroke="#000" stroke-width="12" stroke-linecap="round" data-color="color-2"></path><path d="M191 70C203.354 82.7767 211 100.461 211 120C211 139.539 203.354 157.223 191 170" stroke="#000" stroke-width="12" stroke-linecap="round" data-color="color-2"></path><path d="M149.495 120.495L149.495 119.495" stroke="#000" stroke-width="12" stroke-linecap="round" stroke-linejoin="round" data-color="color-2"></path></g></svg>