<svg width="240" height="240" xmlns="http://www.w3.org/2000/svg" data-color="color-2" viewBox="0 0 240 240"><title>240 users</title><g fill="none" class="nc-icon-wrapper"><path d="M30.1938 177.223C31.5786 167.347 40.0273 160 50 160H90C99.9727 160 108.421 167.347 109.806 177.223V177.223C111.493 189.255 102.15 200 90 200H50C37.8499 200 28.5066 189.255 30.1938 177.223V177.223Z" stroke="#000" stroke-width="12"></path><path d="M130.194 137.223C131.579 127.347 140.027 120 150 120H190C199.973 120 208.421 127.347 209.806 137.223V137.223C211.493 149.255 202.15 160 190 160H150C137.85 160 128.507 149.255 130.194 137.223V137.223Z" stroke="#000" stroke-width="12" data-color="color-2"></path><circle cx="70" cy="100" r="30" stroke="#000" stroke-width="12" data-color="color-2"></circle><circle cx="170" cy="60" r="30" stroke="#000" stroke-width="12"></circle></g></svg>