<svg width="240" height="240" xmlns="http://www.w3.org/2000/svg" viewBox="0 0 240 240"><title>240 places building big</title><g fill="none" class="nc-icon-wrapper"><path d="M190 190V50C190 38.9543 181.046 30 170 30H70C58.9543 30 50 38.9543 50 50V190C50 201.046 58.9543 210 70 210H170C181.046 210 190 201.046 190 190Z" stroke="#000" stroke-width="12" stroke-linecap="round" stroke-linejoin="round"></path><path d="M100 150H140V210H100V150Z" stroke="#000" stroke-width="12"></path><path d="M90 150H150" stroke="#000" stroke-width="12" stroke-linecap="round"></path><path d="M90 100L90 110" stroke="#000" stroke-width="12" stroke-linecap="round" data-color="color-2"></path><path d="M120 100L120 110" stroke="#000" stroke-width="12" stroke-linecap="round" data-color="color-2"></path><path d="M150 100L150 110" stroke="#000" stroke-width="12" stroke-linecap="round" data-color="color-2"></path><path d="M90 60L90 70" stroke="#000" stroke-width="12" stroke-linecap="round" data-color="color-2"></path><path d="M120 60L120 70" stroke="#000" stroke-width="12" stroke-linecap="round" data-color="color-2"></path><path d="M150 60L150 70" stroke="#000" stroke-width="12" stroke-linecap="round" data-color="color-2"></path></g></svg>