<svg width="240" height="240" xmlns="http://www.w3.org/2000/svg" viewBox="0 0 240 240"><title>240 tools repair</title><g fill="none" class="nc-icon-wrapper"><path d="M115.891 45.891C130.049 31.7329 150.005 26.9076 168.116 31.4148C175.196 33.1768 176.477 41.8727 171.318 47.0319L147.712 70.6391C143.807 74.5443 143.807 80.8764 147.712 84.7816L154.782 91.852C158.687 95.7572 165.02 95.7572 168.925 91.852L192.531 68.2457C197.69 63.0866 206.386 64.3673 208.148 71.4474C212.655 89.558 207.83 109.514 193.672 123.672C179.886 137.458 160.604 142.395 142.88 138.485C138.389 137.495 133.553 138.634 130.549 142.116L77.7764 203.285C70.3015 211.949 56.845 212.219 48.5 203.874L36.2481 191.622C27.9033 183.277 28.175 169.822 36.8389 162.347L97.6506 109.881C101.18 106.836 102.299 101.917 101.236 97.3782C97.0396 79.4652 101.925 59.8571 115.891 45.891Z" stroke="#000" stroke-width="12" stroke-linecap="round"></path><path d="M67 173H67.1" stroke="#000" stroke-width="12" stroke-linecap="round" stroke-linejoin="round" data-color="color-2"></path></g></svg>