<svg width="240" height="240" xmlns="http://www.w3.org/2000/svg" data-color="color-2" viewBox="0 0 240 240"><title>240 places pool</title><g fill="none" class="nc-icon-wrapper"><path d="M70 170L70 50C70 38.9543 78.9543 30 90 30L100 30" stroke="#000" stroke-width="12" stroke-linecap="round" stroke-linejoin="round"></path><path d="M150 161L150 50C150 38.9543 158.954 30 170 30L180 30" stroke="#000" stroke-width="12" stroke-linecap="round" stroke-linejoin="round"></path><path d="M80 80L150 80" stroke="#000" stroke-width="12" stroke-linecap="round"></path><path d="M80 120L150 120" stroke="#000" stroke-width="12" stroke-linecap="round"></path><path d="M30 165C38.5714 158.333 47.1429 158.333 55.7143 165C64.2857 171.667 72.8571 171.667 81.4286 165C90 158.333 98.5714 158.333 107.143 165C115.714 171.667 124.286 171.667 132.857 165C141.429 158.333 150 158.333 158.571 165C167.143 171.667 175.714 171.667 184.286 165C192.857 158.333 201.429 158.333 210 165" stroke="#000" stroke-width="12" stroke-linecap="round" stroke-linejoin="round"></path><path d="M30 205C38.5714 198.333 47.1429 198.333 55.7143 205C64.2857 211.667 72.8571 211.667 81.4286 205C90 198.333 98.5714 198.333 107.143 205C115.714 211.667 124.286 211.667 132.857 205C141.429 198.333 150 198.333 158.571 205C167.143 211.667 175.714 211.667 184.286 205C192.857 198.333 201.429 198.333 210 205" stroke="#000" stroke-width="12" stroke-linecap="round" stroke-linejoin="round" data-color="color-2"></path></g></svg>