<svg width="240" height="240" xmlns="http://www.w3.org/2000/svg" data-color="color-2" viewBox="0 0 240 240"><title>240 payment bill</title><g fill="none" class="nc-icon-wrapper"><path d="M50 210V50C50 38.9543 58.9543 30 70 30H170C181.046 30 190 38.9543 190 50V210" stroke="#000" stroke-width="12" stroke-linecap="round"></path><path d="M50 210L80.0386 192.835C83.1129 191.078 86.8871 191.078 89.9614 192.835L115.039 207.165C118.113 208.922 121.887 208.922 124.961 207.165L150.039 192.835C153.113 191.078 156.878 191.073 159.952 192.83C167.079 196.902 180.421 204.526 190 210" stroke="#000" stroke-width="12" stroke-linecap="round"></path><path d="M90 70H150" stroke="#000" stroke-width="12" stroke-linecap="round" data-color="color-2"></path><path d="M90 110H150" stroke="#000" stroke-width="12" stroke-linecap="round" data-color="color-2"></path><path d="M90 150H150" stroke="#000" stroke-width="12" stroke-linecap="round" data-color="color-2"></path></g></svg>