<svg width="240" height="240" xmlns="http://www.w3.org/2000/svg" data-color="color-2" viewBox="0 0 240 240"><title>240 credit score</title><g fill="none" class="nc-icon-wrapper"><path d="M209.65 142.824C208.995 135.765 204.083 128 190 128C177.882 128 171.005 135.765 170.35 142.824C169.697 149.856 167.729 160.471 190 164C212.27 167.529 210.303 178.144 209.65 185.176C208.995 192.235 202.118 200 190 200C175.917 200 171.005 192.235 170.35 185.176" stroke="#000" stroke-width="12" stroke-linecap="round" stroke-linejoin="round" data-color="color-2"></path><path d="M190 210L190 200" stroke="#000" stroke-width="12" stroke-linecap="round" stroke-linejoin="round" data-color="color-2"></path><path d="M190 128L190 118" stroke="#000" stroke-width="12" stroke-linecap="round" stroke-linejoin="round" data-color="color-2"></path><circle cx="120" cy="120" r="20" stroke="#000" stroke-width="12" stroke-linecap="round" stroke-linejoin="round"></circle><path d="M79 80L104 105" stroke="#000" stroke-width="12" stroke-linecap="round" stroke-linejoin="round"></path><path d="M206.482 95C203.773 85.6122 199.577 76.8549 194.165 69M141 207.537C134.263 209.147 127.231 210 120 210C104.223 210 89.3933 205.94 76.5 198.808C72.8361 196.782 69.3286 194.507 66 192.007M45.1555 70C35.5827 84.301 30 101.499 30 120C30 138.501 35.5827 155.699 45.1555 170M67.1479 47.1453C81.9884 36.3607 100.251 30 120 30C139.814 30 158.133 36.4031 173 47.253" stroke="#000" stroke-width="12" stroke-linecap="round" stroke-linejoin="round"></path></g></svg>