<svg width="240" height="240" xmlns="http://www.w3.org/2000/svg" viewBox="0 0 240 240"><title>240 wallet</title><g fill="none" class="nc-icon-wrapper"><path d="M30 49V190C30 201.046 38.9543 210 50 210H190C201.046 210 210 201.046 210 190V90C210 78.9543 201.046 70 190 70H150" stroke="#000" stroke-width="12" stroke-linecap="round"></path><path d="M30 50C30 38.9543 38.9543 30 50 30H170C181.046 30 190 38.9543 190 50V70H50C38.9543 70 30 61.0457 30 50V50Z" stroke="#000" stroke-width="12" stroke-linecap="round"></path><path d="M130 130C130 118.954 138.954 110 150 110H210V170H150C138.954 170 130 161.046 130 150V130Z" stroke="#000" stroke-width="12" stroke-linecap="round"></path><path d="M170 140H170.1" stroke="#000" stroke-width="12" stroke-linecap="round" stroke-linejoin="round" data-color="color-2"></path></g></svg>